<svg version="1.1" viewBox="0.0 0.0 850.3753280839895 529.1259842519685" fill="none" stroke="none" stroke-linecap="square" stroke-miterlimit="10" xmlns:xlink="http://www.w3.org/1999/xlink" xmlns="http://www.w3.org/2000/svg"><clipPath id="p.0"><path d="m0 0l850.3753 0l0 529.126l-850.3753 0l0 -529.126z" clip-rule="nonzero"/></clipPath><g clip-path="url(#p.0)"><path fill="#000000" fill-opacity="0.0" d="m0 0l850.3753 0l0 529.126l-850.3753 0z" fill-rule="evenodd"/><path fill="#d9d9d9" d="m264.6929 56.78236l37.506165 -37.814335l38.021393 0l-37.506134 37.814335z" fill-rule="evenodd"/><path fill="#999999" d="m302.3937 132.39871l37.795258 -37.487244l0 -75.85323l-37.795258 37.487244z" fill-rule="evenodd"/><path fill="#d9d9d9" d="m264.567 56.838394l37.795258 0l0 75.56032l-37.795258 0z" fill-rule="evenodd"/><path fill="#000000" fill-opacity="0.0" d="m264.6929 56.838394l-0.12597656 75.56032" fill-rule="evenodd"/><path stroke="#000000" stroke-width="2.0" stroke-linejoin="round" stroke-linecap="butt" d="m264.6929 56.838394l-0.12597656 75.56032" fill-rule="evenodd"/><path fill="#000000" fill-opacity="0.0" d="m302.37338 56.594227l-0.12600708 75.56032" fill-rule="evenodd"/><path stroke="#000000" stroke-width="2.0" stroke-linejoin="round" stroke-linecap="butt" d="m302.37338 56.594227l-0.12600708 75.56032" fill-rule="evenodd"/><path fill="#000000" fill-opacity="0.0" d="m283.46463 132.39871l0 -75.56032" fill-rule="evenodd"/><path stroke="#000000" stroke-width="1.0" stroke-linejoin="round" stroke-linecap="butt" stroke-dasharray="4.0,3.0" d="m283.46463 132.39871l0 -75.56032" fill-rule="evenodd"/><path fill="#000000" fill-opacity="0.0" d="m340.28348 18.968025l-0.12600708 75.56032" fill-rule="evenodd"/><path stroke="#000000" stroke-width="2.0" stroke-linejoin="round" stroke-linecap="butt" d="m340.28348 18.968025l-0.12600708 75.56032" fill-rule="evenodd"/><path fill="#000000" fill-opacity="0.0" d="m302.3622 56.838394l37.795258 -37.78016" fill-rule="evenodd"/><path stroke="#000000" stroke-width="2.0" stroke-linejoin="round" stroke-linecap="butt" d="m302.3622 56.838394l37.795258 -37.78016" fill-rule="evenodd"/><path fill="#000000" fill-opacity="0.0" d="m302.3622 132.24475l37.795258 -37.78015" fill-rule="evenodd"/><path stroke="#000000" stroke-width="2.0" stroke-linejoin="round" stroke-linecap="butt" d="m302.3622 132.24475l37.795258 -37.78015" fill-rule="evenodd"/><path fill="#000000" fill-opacity="0.0" d="m264.56693 56.688293l37.795288 -37.78016" fill-rule="evenodd"/><path stroke="#000000" stroke-width="2.0" stroke-linejoin="round" stroke-linecap="butt" d="m264.56693 56.688293l37.795288 -37.78016" fill-rule="evenodd"/><path fill="#000000" fill-opacity="0.0" d="m283.52756 56.838394l37.795288 -37.78016" fill-rule="evenodd"/><path stroke="#000000" stroke-width="1.0" stroke-linejoin="round" stroke-linecap="butt" stroke-dasharray="4.0,3.0" d="m283.52756 56.838394l37.795288 -37.78016" fill-rule="evenodd"/><path fill="#999999" d="m491.3386 113.56223l0 0c0 -10.445221 16.921509 -18.91275 37.795258 -18.91275l0 0c20.87378 0 37.795288 8.467529 37.795288 18.91275l0 0c0 10.445229 -16.921509 18.912758 -37.795288 18.912758l0 0c-20.873749 0 -37.795258 -8.467529 -37.795258 -18.912758z" fill-rule="evenodd"/><path stroke="#000000" stroke-width="2.0" stroke-linejoin="round" stroke-linecap="butt" d="m491.3386 113.56223l0 0c0 -10.445221 16.921509 -18.91275 37.795258 -18.91275l0 0c20.87378 0 37.795288 8.467529 37.795288 18.91275l0 0c0 10.445229 -16.921509 18.912758 -37.795288 18.912758l0 0c-20.873749 0 -37.795258 -8.467529 -37.795258 -18.912758z" fill-rule="evenodd"/><path fill="#999999" d="m491.38583 37.911213l75.52756 0l0 75.65102l-75.52756 0z" fill-rule="evenodd"/><path fill="#d9d9d9" d="m491.3386 37.74209l0 0c0 -10.401705 16.921509 -18.833952 37.795258 -18.833952l0 0c20.87378 0 37.795288 8.432247 37.795288 18.833952l0 0c0 10.401707 -16.921509 18.833954 -37.795288 18.833954l0 0c-20.873749 0 -37.795258 -8.432247 -37.795258 -18.833954z" fill-rule="evenodd"/><path stroke="#000000" stroke-width="2.0" stroke-linejoin="round" stroke-linecap="butt" d="m491.3386 37.74209l0 0c0 -10.401705 16.921509 -18.833952 37.795258 -18.833952l0 0c20.87378 0 37.795288 8.432247 37.795288 18.833952l0 0c0 10.401707 -16.921509 18.833954 -37.795288 18.833954l0 0c-20.873749 0 -37.795258 -8.432247 -37.795258 -18.833954z" fill-rule="evenodd"/><path fill="#000000" fill-opacity="0.0" d="m491.5118 37.911213l-0.12597656 75.65102" fill-rule="evenodd"/><path stroke="#000000" stroke-width="2.0" stroke-linejoin="round" stroke-linecap="butt" d="m491.5118 37.911213l-0.12597656 75.65102" fill-rule="evenodd"/><path fill="#000000" fill-opacity="0.0" d="m567.0551 37.911213l0.12597656 75.58798" fill-rule="evenodd"/><path stroke="#000000" stroke-width="2.0" stroke-linejoin="round" stroke-linecap="butt" d="m567.0551 37.911213l0.12597656 75.58798" fill-rule="evenodd"/><path fill="#000000" d="m527.6221 37.796486l0 0c0 -0.83561707 0.67681885 -1.5130196 1.5117798 -1.5130196l0 0c0.40093994 0 0.78552246 0.15940475 1.0690308 0.44315338c0.2835083 0.2837448 0.44281006 0.66858673 0.44281006 1.0698662l0 0c0 0.83561707 -0.6768799 1.5130196 -1.5118408 1.5130196l0 0c-0.83496094 0 -1.5117798 -0.6774025 -1.5117798 -1.5130196z" fill-rule="evenodd"/><path fill="#999999" d="m699.2126 75.62565l0 0c0 -31.233582 25.382324 -56.5534 56.692932 -56.5534l0 0c15.035889 0 29.455933 5.9582863 40.08795 16.564108c10.631958 10.60582 16.60498 24.990398 16.60498 39.989292l0 0c0 31.233582 -25.382324 56.5534 -56.692932 56.5534l0 0c-31.310608 0 -56.692932 -25.319817 -56.692932 -56.5534z" fill-rule="evenodd"/><path stroke="#000000" stroke-width="2.0" stroke-linejoin="round" stroke-linecap="butt" d="m699.2126 75.62565l0 0c0 -31.233582 25.382324 -56.5534 56.692932 -56.5534l0 0c15.035889 0 29.455933 5.9582863 40.08795 16.564108c10.631958 10.60582 16.60498 24.990398 16.60498 39.989292l0 0c0 31.233582 -25.382324 56.5534 -56.692932 56.5534l0 0c-31.310608 0 -56.692932 -25.319817 -56.692932 -56.5534z" fill-rule="evenodd"/><path fill="#b7b7b7" d="m742.47675 32.62838l0 0c13.254822 -13.219194 36.58539 -11.475174 52.11023 3.895378l0 0c15.524841 15.370552 17.365051 38.54712 4.1102295 51.76631l0 0c-13.254822 13.219185 -36.58539 11.475166 -52.11023 -3.8953857l0 0c-15.524841 -15.370544 -17.365051 -38.547115 -4.1102295 -51.766304z" fill-rule="evenodd"/><path fill="#cccccc" d="m767.3848 39.76699l0 0c5.296692 -5.261757 15.005432 -4.1901283 21.684998 2.393547l0 0c6.6796265 6.5836754 7.800659 16.186298 2.5039673 21.448055l0 0c-5.296753 5.261753 -15.005432 4.1901283 -21.685059 -2.393547l0 0c-6.6796265 -6.583679 -7.800659 -16.186298 -2.5039062 -21.448055z" fill-rule="evenodd"/><path fill="#d9d9d9" d="m75.58924 56.7193l37.50347 -37.81164l38.02408 0l-37.50347 37.81164z" fill-rule="evenodd"/><path fill="#999999" d="m113.29002 132.33835l37.795273 -37.48725l0 -75.853226l-37.795273 37.487244z" fill-rule="evenodd"/><path fill="#d9d9d9" d="m75.4633 56.778027l37.79528 0l0 75.56032l-37.79528 0z" fill-rule="evenodd"/><path fill="#000000" fill-opacity="0.0" d="m113.2697 56.53386l-0.12598419 75.56032" fill-rule="evenodd"/><path stroke="#000000" stroke-width="2.0" stroke-linejoin="round" stroke-linecap="butt" d="m113.2697 56.53386l-0.12598419 75.56032" fill-rule="evenodd"/><path fill="#000000" fill-opacity="0.0" d="m151.1798 18.907658l-0.12599182 75.56032" fill-rule="evenodd"/><path stroke="#000000" stroke-width="2.0" stroke-linejoin="round" stroke-linecap="butt" d="m151.1798 18.907658l-0.12599182 75.56032" fill-rule="evenodd"/><path fill="#000000" fill-opacity="0.0" d="m113.25853 56.778027l37.795273 -37.78016" fill-rule="evenodd"/><path stroke="#000000" stroke-width="2.0" stroke-linejoin="round" stroke-linecap="butt" d="m113.25853 56.778027l37.795273 -37.78016" fill-rule="evenodd"/><path fill="#000000" fill-opacity="0.0" d="m113.25853 132.18439l37.795273 -37.78016" fill-rule="evenodd"/><path stroke="#000000" stroke-width="2.0" stroke-linejoin="round" stroke-linecap="butt" d="m113.25853 132.18439l37.795273 -37.78016" fill-rule="evenodd"/><path fill="#000000" fill-opacity="0.0" d="m0 222.99213l75.59055 0l0 45.259857l-75.59055 0z" fill-rule="evenodd"/><path fill="#000000" d="m33.70571 238.34712l0.15625 3.3125l-0.40625 0q-0.109375 -0.875 -0.3125 -1.25q-0.3125 -0.59375 -0.859375 -0.875q-0.5312481 -0.296875 -1.4062481 -0.296875l-1.984375 0l0 10.78125q0 1.3125 0.28125 1.625q0.390625 0.4375 1.21875 0.4375l0.484375 0l0 0.390625l-5.984375 0l0 -0.390625l0.5 0q0.890625 0 1.265625 -0.53125q0.234375 -0.34375 0.234375 -1.53125l0 -10.78125l-1.703125 0q-0.984375 0 -1.40625 0.140625q-0.53125 0.203125 -0.921875 0.765625q-0.390625 0.5625 -0.453125 1.515625l-0.40625 0l0.171875 -3.3125l11.531248 0zm4.522873 4.296875q2.171875 0 3.484375 1.65625q1.109375 1.40625 1.109375 3.21875q0 1.28125 -0.609375 2.59375q-0.609375 1.3125 -1.6875 1.984375q-1.078125 0.671875 -2.40625 0.671875q-2.15625 0 -3.421875 -1.71875q-1.078125 -1.453125 -1.078125 -3.25q0 -1.3125 0.640625 -2.609375q0.65625 -1.296875 1.71875 -1.921875q1.0625 -0.625 2.25 -0.625zm-0.3125 0.6875q-0.5625 0 -1.125 0.328125q-0.546875 0.328125 -0.890625 1.15625q-0.34375 0.8125 -0.34375 2.109375q0 2.078125 0.828125 3.59375q0.828125 1.5 2.1875 1.5q1.0 0 1.65625 -0.828125q0.65625 -0.828125 0.65625 -2.859375q0 -2.546875 -1.09375 -4.0q-0.734375 -1.0 -1.875 -1.0zm5.6328125 0.546875l2.9375 -1.1875l0.390625 0l0 2.234375q0.734375 -1.265625 1.484375 -1.765625q0.75 -0.515625 1.5625 -0.515625q1.4375 0 2.40625 1.125q1.171875 1.375 1.171875 3.59375q0 2.46875 -1.421875 4.078125q-1.15625 1.328125 -2.9375 1.328125q-0.765625 0 -1.328125 -0.21875q-0.421875 -0.15625 -0.9375 -0.625l0 2.90625q0 0.96875 0.109375 1.2343903q0.125 0.265625 0.421875 0.421875q0.296875 0.15625 1.078125 0.15625l0 0.390625l-5.0 0l0 -0.390625l0.265625 0q0.578125 0.015625 0.984375 -0.21875q0.1875 -0.109375 0.296875 -0.375q0.109375 -0.25001526 0.109375 -1.2812653l0 -9.03125q0 -0.921875 -0.078125 -1.171875q-0.078125 -0.25 -0.265625 -0.375q-0.1875 -0.125 -0.5 -0.125q-0.25 0 -0.625 0.140625l-0.125 -0.328125zm3.328125 1.65625l0 3.5625q0 1.15625 0.09375 1.515625q0.140625 0.609375 0.703125 1.078125q0.578125 0.453125 1.4375 0.453125q1.046875 0 1.6875 -0.8125q0.84375 -1.0625 0.84375 -3.0q0 -2.1875 -0.953125 -3.359375q-0.671875 -0.8125 -1.578125 -0.8125q-0.5 0 -1.0 0.25q-0.375 0.1875 -1.234375 1.125z" fill-rule="nonzero"/><path fill="#d9d9d9" d="m226.77165 359.0551l151.1811 0l0 151.06772l-151.1811 0z" fill-rule="evenodd"/><path fill="#000000" fill-opacity="0.0" d="m227.27559 359.0551l-0.50393677 151.06772" fill-rule="evenodd"/><path stroke="#000000" stroke-width="2.0" stroke-linejoin="round" stroke-linecap="butt" d="m227.27559 359.0551l-0.50393677 151.06772" fill-rule="evenodd"/><path fill="#000000" fill-opacity="0.0" d="m378.4567 359.0551l-0.50393677 151.06772" fill-rule="evenodd"/><path stroke="#000000" stroke-width="2.0" stroke-linejoin="round" stroke-linecap="butt" d="m378.4567 359.0551l-0.50393677 151.06772" fill-rule="evenodd"/><path fill="#000000" fill-opacity="0.0" d="m302.3622 510.12283l0 -151.06772" fill-rule="evenodd"/><path stroke="#000000" stroke-width="1.0" stroke-linejoin="round" stroke-linecap="butt" stroke-dasharray="4.0,3.0" d="m302.3622 510.12283l0 -151.06772" fill-rule="evenodd"/><path fill="#d9d9d9" d="m226.77165 170.06778l151.1811 0l0 151.06772l-151.1811 0z" fill-rule="evenodd"/><path fill="#000000" fill-opacity="0.0" d="m227.27559 170.06778l-0.50393677 151.06772" fill-rule="evenodd"/><path stroke="#000000" stroke-width="2.0" stroke-linejoin="round" stroke-linecap="butt" d="m227.27559 170.06778l-0.50393677 151.06772" fill-rule="evenodd"/><path fill="#000000" fill-opacity="0.0" d="m378.4567 170.06778l-0.50393677 151.06772" fill-rule="evenodd"/><path stroke="#000000" stroke-width="2.0" stroke-linejoin="round" stroke-linecap="butt" d="m378.4567 170.06778l-0.50393677 151.06772" fill-rule="evenodd"/><path fill="#000000" fill-opacity="0.0" d="m302.3622 321.1355l0 -151.06772" fill-rule="evenodd"/><path stroke="#000000" stroke-width="1.0" stroke-linejoin="round" stroke-linecap="butt" stroke-dasharray="4.0,3.0" d="m302.3622 321.1355l0 -151.06772" fill-rule="evenodd"/><path fill="#d9d9d9" d="m453.4987 245.60164l0 0c0 -41.7162 33.84305 -75.53386 75.590546 -75.53386l0 0c20.047852 0 39.274597 7.958008 53.450623 22.123352c14.175964 14.165344 22.139954 33.37767 22.139954 53.410507l0 0c0 41.7162 -33.84308 75.53386 -75.590576 75.53386l0 0c-41.747498 0 -75.590546 -33.817657 -75.590546 -75.53386z" fill-rule="evenodd"/><path stroke="#000000" stroke-width="2.0" stroke-linejoin="round" stroke-linecap="butt" d="m453.4987 245.60164l0 0c0 -41.7162 33.84305 -75.53386 75.590546 -75.53386l0 0c20.047852 0 39.274597 7.958008 53.450623 22.123352c14.175964 14.165344 22.139954 33.37767 22.139954 53.410507l0 0c0 41.7162 -33.84308 75.53386 -75.590576 75.53386l0 0c-41.747498 0 -75.590546 -33.817657 -75.590546 -75.53386z" fill-rule="evenodd"/><path fill="#000000" d="m527.4514 245.60164l0 0c0 -0.8343353 0.6768799 -1.5106812 1.5118408 -1.5106812l0 0c0.40093994 0 0.7854614 0.15914917 1.0690308 0.4424591c0.2835083 0.28330994 0.44274902 0.66755676 0.44274902 1.068222l0 0c0 0.83432007 -0.67681885 1.5106659 -1.5117798 1.5106659l0 0c-0.83496094 0 -1.5118408 -0.6763458 -1.5118408 -1.5106659z" fill-rule="evenodd"/><path fill="#d9d9d9" d="m680.31494 434.589l0 0c0 -41.716217 33.84308 -75.533875 75.590576 -75.533875l0 0c20.047852 0 39.274597 7.958008 53.45056 22.123352c14.176025 14.165344 22.139954 33.377686 22.139954 53.410522l0 0c0 41.716187 -33.843018 75.533844 -75.590515 75.533844l0 0c-41.747498 0 -75.590576 -33.817657 -75.590576 -75.533844z" fill-rule="evenodd"/><path stroke="#000000" stroke-width="2.0" stroke-linejoin="round" stroke-linecap="butt" d="m680.31494 434.589l0 0c0 -41.716217 33.84308 -75.533875 75.590576 -75.533875l0 0c20.047852 0 39.274597 7.958008 53.45056 22.123352c14.176025 14.165344 22.139954 33.377686 22.139954 53.410522l0 0c0 41.716187 -33.843018 75.533844 -75.590515 75.533844l0 0c-41.747498 0 -75.590576 -33.817657 -75.590576 -75.533844z" fill-rule="evenodd"/><path fill="#000000" d="m754.2677 434.589l0 0c0 -0.8343506 0.6768799 -1.5106812 1.5118408 -1.5106812l0 0c0.40093994 0 0.7854614 0.15914917 1.0689697 0.44244385c0.28356934 0.2833252 0.44281006 0.667572 0.44281006 1.0682373l0 0c0 0.83432007 -0.67681885 1.5106506 -1.5117798 1.5106506l0 0c-0.83496094 0 -1.5118408 -0.67633057 -1.5118408 -1.5106506z" fill-rule="evenodd"/><path fill="#d9d9d9" d="m680.2257 245.60164l0 0c0 -41.7162 33.84308 -75.53386 75.590576 -75.53386l0 0c20.047852 0 39.274597 7.958008 53.45056 22.123352c14.176025 14.165344 22.139954 33.37767 22.139954 53.410507l0 0c0 41.7162 -33.843018 75.53386 -75.590515 75.53386l0 0c-41.747498 0 -75.590576 -33.817657 -75.590576 -75.53386z" fill-rule="evenodd"/><path stroke="#000000" stroke-width="2.0" stroke-linejoin="round" stroke-linecap="butt" d="m680.2257 245.60164l0 0c0 -41.7162 33.84308 -75.53386 75.590576 -75.53386l0 0c20.047852 0 39.274597 7.958008 53.45056 22.123352c14.176025 14.165344 22.139954 33.37767 22.139954 53.410507l0 0c0 41.7162 -33.843018 75.53386 -75.590515 75.53386l0 0c-41.747498 0 -75.590576 -33.817657 -75.590576 -75.53386z" fill-rule="evenodd"/><path fill="#000000" d="m754.17847 245.60164l0 0c0 -0.8343353 0.6768799 -1.5106812 1.5118408 -1.5106812l0 0c0.40093994 0 0.7854614 0.15914917 1.0689697 0.4424591c0.28356934 0.28330994 0.44281006 0.66755676 0.44281006 1.068222l0 0c0 0.83432007 -0.67681885 1.5106659 -1.5117798 1.5106659l0 0c-0.83496094 0 -1.5118408 -0.6763458 -1.5118408 -1.5106659z" fill-rule="evenodd"/><path fill="#d9d9d9" d="m453.5433 359.0551l151.18112 0l0 151.06772l-151.18112 0z" fill-rule="evenodd"/><path fill="#000000" fill-opacity="0.0" d="m454.04724 359.0551l-0.50393677 151.06772" fill-rule="evenodd"/><path stroke="#000000" stroke-width="2.0" stroke-linejoin="round" stroke-linecap="butt" d="m454.04724 359.0551l-0.50393677 151.06772" fill-rule="evenodd"/><path fill="#000000" fill-opacity="0.0" d="m605.22833 359.0551l-0.50390625 151.06772" fill-rule="evenodd"/><path stroke="#000000" stroke-width="2.0" stroke-linejoin="round" stroke-linecap="butt" d="m605.22833 359.0551l-0.50390625 151.06772" fill-rule="evenodd"/><path fill="#000000" fill-opacity="0.0" d="m529.13385 510.12283l0 -151.06772" fill-rule="evenodd"/><path stroke="#000000" stroke-width="1.0" stroke-linejoin="round" stroke-linecap="butt" stroke-dasharray="4.0,3.0" d="m529.13385 510.12283l0 -151.06772" fill-rule="evenodd"/><path fill="#000000" fill-opacity="0.0" d="m307.65353 236.52255l18.141754 0l0 18.141724l-18.141754 0z" fill-rule="evenodd"/><path stroke="#000000" stroke-width="1.0" stroke-linejoin="round" stroke-linecap="butt" d="m307.65353 236.52255l18.141754 0l0 18.141724l-18.141754 0z" fill-rule="evenodd"/><path fill="#000000" fill-opacity="0.0" d="m331.02362 236.52255l18.141724 0l0 18.141724l-18.141724 0z" fill-rule="evenodd"/><path stroke="#000000" stroke-width="1.0" stroke-linejoin="round" stroke-linecap="butt" d="m331.02362 236.52255l18.141724 0l0 18.141724l-18.141724 0z" fill-rule="evenodd"/><path fill="#000000" fill-opacity="0.0" d="m594.0281 218.7559l0 0c7.1292725 17.209564 7.1296997 36.543854 0.001159668 53.75444l-64.97754 -26.872543z" fill-rule="evenodd"/><path fill="#000000" fill-opacity="0.0" d="m594.0281 218.7559l0 0c7.1292725 17.209564 7.1296997 36.543854 0.001159668 53.75444" fill-rule="evenodd"/><path stroke="#000000" stroke-width="1.0" stroke-linejoin="round" stroke-linecap="butt" d="m594.0281 218.7559l0 0c7.1292725 17.209564 7.1296997 36.543854 0.001159668 53.75444" fill-rule="evenodd"/><path fill="#000000" fill-opacity="0.0" d="m577.1171 225.66043l0 0c5.312439 12.81189 5.2973022 27.210876 -0.041992188 40.011078l-48.146973 -20.05832z" fill-rule="evenodd"/><path fill="#000000" fill-opacity="0.0" d="m577.1171 225.66043l0 0c5.312439 12.81189 5.2973022 27.210876 -0.041992188 40.011078" fill-rule="evenodd"/><path stroke="#000000" stroke-width="1.0" stroke-linejoin="round" stroke-linecap="butt" d="m577.1171 225.66043l0 0c5.312439 12.81189 5.2973022 27.210876 -0.041992188 40.011078" fill-rule="evenodd"/><path fill="#000000" fill-opacity="0.0" d="m354.51968 236.52255l18.141724 0l0 18.141724l-18.141724 0z" fill-rule="evenodd"/><path stroke="#000000" stroke-width="1.0" stroke-linejoin="round" stroke-linecap="butt" d="m354.51968 236.52255l18.141724 0l0 18.141724l-18.141724 0z" fill-rule="evenodd"/><path fill="#000000" fill-opacity="0.0" d="m572.71576 227.69312l0 0c4.729126 11.419632 4.7495117 24.243942 0.056762695 35.67804l-43.36383 -17.772522z" fill-rule="evenodd"/><path fill="#000000" fill-opacity="0.0" d="m572.71576 227.69312l0 0c4.729126 11.419632 4.7495117 24.243942 0.056762695 35.67804" fill-rule="evenodd"/><path stroke="#000000" stroke-width="1.0" stroke-linejoin="round" stroke-linecap="butt" d="m572.71576 227.69312l0 0c4.729126 11.419632 4.7495117 24.243942 0.056762695 35.67804" fill-rule="evenodd"/><path fill="#000000" fill-opacity="0.0" d="m555.4613 234.62929l0 0c2.9041748 7.010803 2.9141846 14.884354 0.027954102 21.900803l-26.579163 -10.924423z" fill-rule="evenodd"/><path fill="#000000" fill-opacity="0.0" d="m555.4613 234.62929l0 0c2.9041748 7.010803 2.9141846 14.884354 0.027954102 21.900803" fill-rule="evenodd"/><path stroke="#000000" stroke-width="1.0" stroke-linejoin="round" stroke-linecap="butt" d="m555.4613 234.62929l0 0c2.9041748 7.010803 2.9141846 14.884354 0.027954102 21.900803" fill-rule="evenodd"/><path fill="#000000" fill-opacity="0.0" d="m550.5769 236.63603l0 0c2.3917847 5.7612457 2.383728 12.2388 -0.022338867 17.99533l-21.615417 -9.018951z" fill-rule="evenodd"/><path fill="#000000" fill-opacity="0.0" d="m550.5769 236.63603l0 0c2.3917847 5.7612457 2.383728 12.2388 -0.022338867 17.99533" fill-rule="evenodd"/><path stroke="#000000" stroke-width="1.0" stroke-linejoin="round" stroke-linecap="butt" d="m550.5769 236.63603l0 0c2.3917847 5.7612457 2.383728 12.2388 -0.022338867 17.99533" fill-rule="evenodd"/><path fill="#000000" fill-opacity="0.0" d="m533.98883 243.56384l0 0c0.53582764 1.2975616 0.532959 2.7550507 -0.007873535 4.050522l-4.8739624 -2.0347748z" fill-rule="evenodd"/><path fill="#000000" fill-opacity="0.0" d="m533.98883 243.56384l0 0c0.53582764 1.2975616 0.532959 2.7550507 -0.007873535 4.050522" fill-rule="evenodd"/><path stroke="#000000" stroke-width="1.0" stroke-linejoin="round" stroke-linecap="butt" d="m533.98883 243.56384l0 0c0.53582764 1.2975616 0.532959 2.7550507 -0.007873535 4.050522" fill-rule="evenodd"/><path fill="#000000" fill-opacity="0.0" d="m533.98096 247.61435l16.566956 7.023636" fill-rule="evenodd"/><path stroke="#000000" stroke-width="1.0" stroke-linejoin="round" stroke-linecap="butt" d="m533.98096 247.61435l16.566956 7.023636" fill-rule="evenodd"/><path fill="#000000" fill-opacity="0.0" d="m555.48926 256.5301l17.29132 6.834656" fill-rule="evenodd"/><path stroke="#000000" stroke-width="1.0" stroke-linejoin="round" stroke-linecap="butt" d="m555.48926 256.5301l17.29132 6.834656" fill-rule="evenodd"/><path fill="#000000" fill-opacity="0.0" d="m577.07513 265.6715l16.944885 6.834656" fill-rule="evenodd"/><path stroke="#000000" stroke-width="1.0" stroke-linejoin="round" stroke-linecap="butt" d="m577.07513 265.6715l16.944885 6.834656" fill-rule="evenodd"/><path fill="#000000" fill-opacity="0.0" d="m533.98883 243.56384l16.59845 -6.929138" fill-rule="evenodd"/><path stroke="#000000" stroke-width="1.0" stroke-linejoin="round" stroke-linecap="butt" d="m533.98883 243.56384l16.59845 -6.929138" fill-rule="evenodd"/><path fill="#000000" fill-opacity="0.0" d="m555.4613 234.62929l17.259827 -6.929123" fill-rule="evenodd"/><path stroke="#000000" stroke-width="1.0" stroke-linejoin="round" stroke-linecap="butt" d="m555.4613 234.62929l17.259827 -6.929123" fill-rule="evenodd"/><path fill="#000000" fill-opacity="0.0" d="m577.1171 225.66043l16.913391 -6.897629" fill-rule="evenodd"/><path stroke="#000000" stroke-width="1.0" stroke-linejoin="round" stroke-linecap="butt" d="m577.1171 225.66043l16.913391 -6.897629" fill-rule="evenodd"/><path fill="#000000" d="m366.61417 283.37534l5.6693115 -5.6693115l0 3.90036l11.338562 0l0 -3.90036l5.6693115 5.6693115l-5.6693115 5.669281l0 -3.90036l-11.338562 0l0 3.90036z" fill-rule="evenodd"/><path fill="#000000" d="m215.43307 283.46457l5.669281 -5.669281l0 3.90036l11.338593 0l0 -3.90036l5.669281 5.669281l-5.669281 5.669281l0 -3.90036l-11.338593 0l0 3.90036z" fill-rule="evenodd"/><path fill="#000000" d="m215.43307 245.6378l5.669281 -5.6692963l0 3.90036l11.338593 0l0 -3.90036l5.669281 5.6692963l-5.669281 5.669281l0 -3.90036l-11.338593 0l0 3.90036z" fill-rule="evenodd"/><path fill="#000000" d="m215.43307 207.81102l5.669281 -5.669281l0 3.9003448l11.338593 0l0 -3.9003448l5.669281 5.669281l-5.669281 5.6692963l0 -3.90036l-11.338593 0l0 3.90036z" fill-rule="evenodd"/><path fill="#000000" d="m366.61417 207.81102l5.6693115 -5.669281l0 3.9003448l11.338562 0l0 -3.9003448l5.6693115 5.669281l-5.6693115 5.6692963l0 -3.90036l-11.338562 0l0 3.90036z" fill-rule="evenodd"/><path fill="#000000" d="m366.61417 472.23096l5.6693115 -5.669281l0 3.90036l11.338562 0l0 -3.90036l5.6693115 5.669281l-5.6693115 5.6693115l0 -3.90036l-11.338562 0l0 3.90036z" fill-rule="evenodd"/><path fill="#000000" d="m215.43307 472.32022l5.669281 -5.6693115l0 3.90036l11.338593 0l0 -3.90036l5.669281 5.6693115l-5.669281 5.669281l0 -3.90036l-11.338593 0l0 3.90036z" fill-rule="evenodd"/><path fill="#000000" d="m215.43307 434.49344l5.669281 -5.669281l0 3.90036l11.338593 0l0 -3.90036l5.669281 5.669281l-5.669281 5.669281l0 -3.90036l-11.338593 0l0 3.90036z" fill-rule="evenodd"/><path fill="#000000" d="m215.43307 396.66666l5.669281 -5.669281l0 3.90036l11.338593 0l0 -3.90036l5.669281 5.669281l-5.669281 5.6693115l0 -3.90036l-11.338593 0l0 3.90036z" fill-rule="evenodd"/><path fill="#000000" d="m366.61417 396.66666l5.6693115 -5.669281l0 3.90036l11.338562 0l0 -3.90036l5.6693115 5.669281l-5.6693115 5.6693115l0 -3.90036l-11.338562 0l0 3.90036z" fill-rule="evenodd"/><path fill="#000000" d="m366.61417 434.44882l5.6693115 -5.669281l0 3.90036l11.338562 0l0 -3.90036l5.6693115 5.669281l-5.6693115 5.669281l0 -3.90036l-11.338562 0l0 3.90036z" fill-rule="evenodd"/><path fill="#000000" d="m593.3858 472.23096l5.6693115 -5.669281l0 3.90036l11.338562 0l0 -3.90036l5.6693115 5.669281l-5.6693115 5.6693115l0 -3.90036l-11.338562 0l0 3.90036z" fill-rule="evenodd"/><path fill="#000000" d="m442.2047 472.32022l5.6693115 -5.6693115l0 3.90036l11.338562 0l0 -3.90036l5.6693115 5.6693115l-5.6693115 5.669281l0 -3.90036l-11.338562 0l0 3.90036z" fill-rule="evenodd"/><path fill="#000000" d="m442.2047 434.49344l5.6693115 -5.669281l0 3.90036l11.338562 0l0 -3.90036l5.6693115 5.669281l-5.6693115 5.669281l0 -3.90036l-11.338562 0l0 3.90036z" fill-rule="evenodd"/><path fill="#000000" d="m442.2047 396.66666l5.6693115 -5.669281l0 3.90036l11.338562 0l0 -3.90036l5.6693115 5.669281l-5.6693115 5.6693115l0 -3.90036l-11.338562 0l0 3.90036z" fill-rule="evenodd"/><path fill="#000000" d="m593.3858 396.66666l5.6693115 -5.669281l0 3.90036l11.338562 0l0 -3.90036l5.6693115 5.669281l-5.6693115 5.6693115l0 -3.90036l-11.338562 0l0 3.90036z" fill-rule="evenodd"/><path fill="#000000" d="m593.3858 434.44882l5.6693115 -5.669281l0 3.90036l11.338562 0l0 -3.90036l5.6693115 5.669281l-5.6693115 5.669281l0 -3.90036l-11.338562 0l0 3.90036z" fill-rule="evenodd"/><path fill="#000000" d="m442.09186 245.6378l5.6693115 -5.6692963l0 3.90036l11.338562 0l0 -3.90036l5.6693115 5.6692963l-5.6693115 5.669281l0 -3.90036l-11.338562 0l0 3.90036z" fill-rule="evenodd"/><path fill="#000000" d="m529.3567 158.74016l5.661438 5.669281l-3.9003296 0l-0.01574707 11.338593l3.9003296 0l-5.677185 5.6692963l-5.661377 -5.6692963l3.9003296 0l0.01574707 -11.338593l-3.9003296 0z" fill-rule="evenodd"/><path fill="#000000" d="m529.3567 309.74802l5.661438 5.6693115l-3.9003296 0l-0.01574707 11.338593l3.9003296 0l-5.677185 5.669281l-5.661377 -5.669281l3.9003296 0l0.01574707 -11.338593l-3.9003296 0z" fill-rule="evenodd"/><path fill="#000000" d="m467.7928 184.1765l8.007874 -0.007858276l-2.7519226 2.7627563l8.015747 8.015732l2.751892 -2.7627563l0.007904053 8.023636l-8.007904 0.007858276l2.7519226 -2.7627563l-8.015717 -8.015732l-2.7519226 2.7627563z" fill-rule="evenodd"/><path fill="#000000" d="m530.5019 244.4822l0 0c-0.5913696 -0.59143066 -1.550293 -0.59143066 -2.1417236 0l0 0c-0.28399658 0.28401184 -0.44354248 0.6692047 -0.44354248 1.0708618c0 0.4016571 0.1595459 0.78685 0.44354248 1.0708618l0 0c0.59143066 0.59143066 1.550354 0.59143066 2.1417236 0l0 0c0.59143066 -0.5914154 0.59143066 -1.5503082 0 -2.1417236z" fill-rule="evenodd"/><path fill="#000000" d="m590.8895 184.1765l-8.007935 -0.007858276l2.7519531 2.7627563l-8.015747 8.015732l-2.751892 -2.7627563l-0.007873535 8.023636l8.007874 0.007858276l-2.7519531 -2.7627563l8.015747 -8.015732l2.751892 2.7627563z" fill-rule="evenodd"/><path fill="#000000" d="m590.8895 307.09863l-8.007935 0.007873535l2.7519531 -2.7627563l-8.015747 -8.015717l-2.751892 2.7627563l-0.007873535 -8.023651l8.007874 -0.007843018l-2.7519531 2.7627563l8.015747 8.015717l2.751892 -2.7627563z" fill-rule="evenodd"/><path fill="#000000" d="m528.18036 246.70372l0 0c0.59143066 0.59143066 1.550293 0.59143066 2.1417236 0l0 0c0.28399658 -0.28401184 0.44360352 -0.6692047 0.44360352 -1.0708618c0 -0.4016571 -0.15960693 -0.78685 -0.44360352 -1.0708618l0 0c-0.59143066 -0.59143066 -1.550293 -0.59143066 -2.1417236 0l0 0c-0.59143066 0.5914154 -0.59143066 1.5503082 0 2.1417236z" fill-rule="evenodd"/><path fill="#000000" d="m467.7928 307.0094l8.007874 0.007873535l-2.7519226 -2.7627563l8.015747 -8.015717l2.751892 2.7627563l0.007904053 -8.023651l-8.007904 -0.007873535l2.7519226 2.7627563l-8.015717 8.015747l-2.7519226 -2.7627563z" fill-rule="evenodd"/><path fill="#000000" d="m668.81366 245.69292l5.6692505 -5.6692963l0 3.90036l11.338623 0l0 -3.90036l5.6692505 5.6692963l-5.6692505 5.669281l0 -3.9003448l-11.338623 0l0 3.9003448z" fill-rule="evenodd"/><path fill="#000000" d="m756.0785 158.79527l5.661438 5.669281l-3.9003906 0l-0.01574707 11.338608l3.9003906 0l-5.677185 5.669281l-5.661438 -5.669281l3.9003906 0l0.01574707 -11.338608l-3.9003906 0z" fill-rule="evenodd"/><path fill="#000000" d="m756.0785 309.80316l5.661438 5.669281l-3.9003906 0l-0.01574707 11.338593l3.9003906 0l-5.677185 5.669281l-5.661438 -5.669281l3.9003906 0l0.01574707 -11.338593l-3.9003906 0z" fill-rule="evenodd"/><path fill="#000000" d="m694.5146 184.23163l8.007874 -0.007873535l-2.7519531 2.7627563l8.015747 8.015732l2.751892 -2.7627563l0.00793457 8.023636l-8.007935 0.007858276l2.7519531 -2.7627563l-8.015747 -8.015732l-2.751892 2.7627563z" fill-rule="evenodd"/><path fill="#000000" d="m817.61127 184.23163l-8.007874 -0.007873535l2.7519531 2.7627563l-8.015747 8.015732l-2.7519531 -2.7627563l-0.007873535 8.023636l8.007874 0.007858276l-2.751892 -2.7627563l8.015747 -8.015732l2.751892 2.7627563z" fill-rule="evenodd"/><path fill="#000000" d="m817.61127 307.15378l-8.007874 0.007843018l2.7519531 -2.7627563l-8.015747 -8.015717l-2.7519531 2.7627563l-0.007873535 -8.023621l8.007874 -0.007873535l-2.751892 2.7627563l8.015747 8.015717l2.751892 -2.7627563z" fill-rule="evenodd"/><path fill="#000000" d="m694.5146 307.0645l8.007874 0.007873535l-2.7519531 -2.7627563l8.015747 -8.015717l2.751892 2.7627563l0.00793457 -8.023651l-8.007935 -0.007843018l2.7519531 2.7627258l-8.015747 8.015747l-2.751892 -2.7627563z" fill-rule="evenodd"/><path fill="#000000" d="m819.99475 245.69292l5.6693115 -5.6692963l0 3.90036l11.338562 0l0 -3.90036l5.6693115 5.6692963l-5.6693115 5.669281l0 -3.9003448l-11.338562 0l0 3.9003448z" fill-rule="evenodd"/><path fill="#000000" d="m668.9764 434.64435l5.6693115 -5.669281l0 3.90036l11.338562 0l0 -3.90036l5.6693115 5.669281l-5.6693115 5.6693115l0 -3.90036l-11.338562 0l0 3.90036z" fill-rule="evenodd"/><path fill="#000000" d="m756.2412 347.7467l5.661438 5.6693115l-3.9003906 0l-0.01574707 11.338593l3.9003906 0l-5.677185 5.669281l-5.661377 -5.669281l3.9003296 0l0.01574707 -11.338593l-3.9003296 0z" fill-rule="evenodd"/><path fill="#000000" d="m756.2412 498.7546l5.661438 5.669281l-3.9003906 0l-0.01574707 11.338562l3.9003906 0l-5.677185 5.6693115l-5.661377 -5.6693115l3.9003296 0l0.01574707 -11.338562l-3.9003296 0z" fill-rule="evenodd"/><path fill="#000000" d="m694.6773 373.18307l8.007874 -0.007873535l-2.7519531 2.7627563l8.015747 8.015717l2.7519531 -2.7627563l0.007873535 8.023651l-8.007874 0.007873535l2.751892 -2.7627563l-8.015747 -8.015747l-2.751892 2.7627563z" fill-rule="evenodd"/><path fill="#000000" d="m817.774 373.18307l-8.007874 -0.007873535l2.7519531 2.7627563l-8.015747 8.015717l-2.751892 -2.7627563l-0.00793457 8.023651l8.007935 0.007873535l-2.7519531 -2.7627563l8.015747 -8.015747l2.751892 2.7627563z" fill-rule="evenodd"/><path fill="#000000" d="m817.774 496.1052l-8.007874 0.007873535l2.7519531 -2.7627563l-8.015747 -8.015717l-2.751892 2.7627563l-0.00793457 -8.023651l8.007935 -0.007843018l-2.7519531 2.7627563l8.015747 8.015717l2.751892 -2.7627563z" fill-rule="evenodd"/><path fill="#000000" d="m694.6773 496.01596l8.007874 0.007873535l-2.7519531 -2.7627563l8.015747 -8.015717l2.7519531 2.7627563l0.007873535 -8.023651l-8.007874 -0.007873535l2.751892 2.7627563l-8.015747 8.015747l-2.751892 -2.7627563z" fill-rule="evenodd"/><path fill="#000000" d="m820.1575 434.64435l5.6693115 -5.669281l0 3.90036l11.338562 0l0 -3.90036l5.6693115 5.669281l-5.6693115 5.6693115l0 -3.90036l-11.338562 0l0 3.90036z" fill-rule="evenodd"/><path fill="#d9d9d9" d="m75.59055 359.0551l75.59055 0l0 151.06772l-75.59055 0z" fill-rule="evenodd"/><path fill="#000000" fill-opacity="0.0" d="m151.68504 359.0551l-0.50393677 151.06772" fill-rule="evenodd"/><path stroke="#000000" stroke-width="2.0" stroke-linejoin="round" stroke-linecap="butt" d="m151.68504 359.0551l-0.50393677 151.06772" fill-rule="evenodd"/><path fill="#d9d9d9" d="m75.59055 170.06778l75.59055 0l0 151.06772l-75.59055 0z" fill-rule="evenodd"/><path fill="#000000" fill-opacity="0.0" d="m151.68504 170.06778l-0.50393677 151.06772" fill-rule="evenodd"/><path stroke="#000000" stroke-width="2.0" stroke-linejoin="round" stroke-linecap="butt" d="m151.68504 170.06778l-0.50393677 151.06772" fill-rule="evenodd"/><path fill="#000000" fill-opacity="0.0" d="m80.88189 236.52255l18.141731 0l0 18.141724l-18.141731 0z" fill-rule="evenodd"/><path stroke="#000000" stroke-width="1.0" stroke-linejoin="round" stroke-linecap="butt" d="m80.88189 236.52255l18.141731 0l0 18.141724l-18.141731 0z" fill-rule="evenodd"/><path fill="#000000" fill-opacity="0.0" d="m104.25197 236.52255l18.141731 0l0 18.141724l-18.141731 0z" fill-rule="evenodd"/><path stroke="#000000" stroke-width="1.0" stroke-linejoin="round" stroke-linecap="butt" d="m104.25197 236.52255l18.141731 0l0 18.141724l-18.141731 0z" fill-rule="evenodd"/><path fill="#000000" fill-opacity="0.0" d="m127.74803 236.52255l18.141739 0l0 18.141724l-18.141739 0z" fill-rule="evenodd"/><path stroke="#000000" stroke-width="1.0" stroke-linejoin="round" stroke-linecap="butt" d="m127.74803 236.52255l18.141739 0l0 18.141724l-18.141739 0z" fill-rule="evenodd"/><path fill="#000000" d="m139.84251 283.37534l5.6692963 -5.6693115l0 3.90036l11.338577 0l0 -3.90036l5.6692963 5.6693115l-5.6692963 5.669281l0 -3.90036l-11.338577 0l0 3.90036z" fill-rule="evenodd"/><path fill="#000000" d="m139.84251 207.81102l5.6692963 -5.669281l0 3.9003448l11.338577 0l0 -3.9003448l5.6692963 5.669281l-5.6692963 5.6692963l0 -3.90036l-11.338577 0l0 3.90036z" fill-rule="evenodd"/><path fill="#000000" d="m139.84251 472.23096l5.6692963 -5.669281l0 3.90036l11.338577 0l0 -3.90036l5.6692963 5.669281l-5.6692963 5.6693115l0 -3.90036l-11.338577 0l0 3.90036z" fill-rule="evenodd"/><path fill="#000000" d="m139.84251 396.66666l5.6692963 -5.669281l0 3.90036l11.338577 0l0 -3.90036l5.6692963 5.669281l-5.6692963 5.6693115l0 -3.90036l-11.338577 0l0 3.90036z" fill-rule="evenodd"/><path fill="#000000" d="m139.84251 434.44882l5.6692963 -5.669281l0 3.90036l11.338577 0l0 -3.90036l5.6692963 5.669281l-5.6692963 5.669281l0 -3.90036l-11.338577 0l0 3.90036z" fill-rule="evenodd"/><path fill="#000000" fill-opacity="0.0" d="m0 411.9685l75.59055 0l0 45.259827l-75.59055 0z" fill-rule="evenodd"/><path fill="#000000" d="m28.617601 427.01102l0 4.875l-0.390625 0q-0.1875 -1.40625 -0.671875 -2.234375q-0.484375 -0.828125 -1.375 -1.3125q-0.890625 -0.5 -1.859375 -0.5q-1.078125 0 -1.796875 0.671875q-0.703125 0.65625 -0.703125 1.5q0 0.640625 0.453125 1.171875q0.640625 0.78125 3.078125 2.078125q1.96875 1.0625 2.6875 1.640625q0.734375 0.5625 1.125 1.328125q0.390625 0.765625 0.390625 1.609375q0 1.609375 -1.25 2.78125q-1.234375 1.15625 -3.203125 1.15625q-0.609375 0 -1.15625 -0.09375q-0.3125 -0.0625 -1.328125 -0.390625q-1.015625 -0.328125 -1.296875 -0.328125q-0.25 0 -0.40625 0.15625q-0.15625 0.15625 -0.21875 0.65625l-0.390625 0l0 -4.84375l0.390625 0q0.265625 1.515625 0.71875 2.28125q0.46875 0.75 1.40625 1.25q0.9375 0.5 2.0625 0.5q1.3125 0 2.0625 -0.6875q0.75 -0.6875 0.75 -1.625q0 -0.53125 -0.28125 -1.0625q-0.28125 -0.53125 -0.890625 -0.984375q-0.40625 -0.3125 -2.21875 -1.328125q-1.8125 -1.015625 -2.578125 -1.609375q-0.765625 -0.609375 -1.171875 -1.34375q-0.390625 -0.734375 -0.390625 -1.59375q0 -1.53125 1.171875 -2.625q1.171875 -1.09375 2.96875 -1.09375q1.125 0 2.390625 0.546875q0.578125 0.265625 0.8125 0.265625q0.28125 0 0.453125 -0.15625q0.171875 -0.171875 0.265625 -0.65625l0.390625 0zm5.1741924 -0.375q0.4375 0 0.734375 0.3125q0.3125 0.3125 0.3125 0.75q0 0.4375 -0.3125 0.75q-0.296875 0.3125 -0.734375 0.3125q-0.4375 0 -0.75 -0.3125q-0.3125 -0.3125 -0.3125 -0.75q0 -0.4375 0.296875 -0.75q0.3125 -0.3125 0.765625 -0.3125zm0.859375 4.984375l0 7.671875q0 0.890625 0.125 1.1875q0.140625 0.296875 0.390625 0.453125q0.265625 0.140625 0.9375 0.140625l0 0.375l-4.640623 0l0 -0.375q0.7031231 0 0.9374981 -0.125q0.25 -0.140625 0.390625 -0.453125q0.140625 -0.3125 0.140625 -1.203125l0 -3.671875q0 -1.5625 -0.09375 -2.015625q-0.078125 -0.328125 -0.234375 -0.453125q-0.15625 -0.140625 -0.421875 -0.140625q-0.2968731 0 -0.7187481 0.15625l-0.140625 -0.375l2.874998 -1.171875l0.453125 0zm9.378769 8.75q-0.703125 0.734375 -1.375 1.0625q-0.65625 0.3125 -1.421875 0.3125q-1.5625 0 -2.734375 -1.3125q-1.171875 -1.3125 -1.171875 -3.359375q0 -2.046875 1.296875 -3.75q1.296875 -1.703125 3.328125 -1.703125q1.25 0 2.078125 0.796875l0 -1.75q0 -1.640625 -0.078125 -2.015625q-0.078125 -0.375 -0.25 -0.5q-0.15625 -0.140625 -0.40625 -0.140625q-0.28125 0 -0.71875 0.15625l-0.140625 -0.359375l2.84375 -1.171875l0.46875 0l0 11.03125q0 1.671875 0.078125 2.046875q0.078125 0.375 0.25 0.515625q0.171875 0.140625 0.40625 0.140625q0.28125 0 0.75 -0.171875l0.109375 0.359375l-2.828125 1.1875l-0.484375 0l0 -1.375zm0 -0.71875l0 -4.921875q-0.0625 -0.703125 -0.375 -1.28125q-0.3125 -0.59375 -0.828125 -0.890625q-0.515625 -0.296875 -1.0 -0.296875q-0.921875 0 -1.640625 0.828125q-0.953125 1.078125 -0.953125 3.15625q0 2.109375 0.921875 3.234375q0.921875 1.109375 2.046875 1.109375q0.9375 0 1.828125 -0.9375zm5.5234375 -4.15625q0 2.125 1.03125 3.34375q1.046875 1.203125 2.453125 1.203125q0.9375 0 1.625 -0.515625q0.703125 -0.515625 1.171875 -1.765625l0.3125 0.203125q-0.21875 1.4375 -1.265625 2.609375q-1.046875 1.171875 -2.640625 1.171875q-1.71875 0 -2.9375 -1.34375q-1.21875 -1.34375 -1.21875 -3.59375q0 -2.453125 1.25 -3.8125q1.25 -1.375 3.15625 -1.375q1.59375 0 2.625 1.0625q1.03125 1.046875 1.03125 2.8125l-6.59375 0zm0 -0.59375l4.421875 0q-0.046875 -0.921875 -0.21875 -1.296875q-0.265625 -0.578125 -0.78125 -0.90625q-0.515625 -0.34375 -1.078125 -0.34375q-0.859375 0 -1.546875 0.671875q-0.671875 0.671875 -0.796875 1.875z" fill-rule="nonzero"/><path fill="#000000" d="m159.87401 248.4357l-5.018387 -2.8346558l0 2.084015l-17.658768 0l0 1.5012817l17.658768 0l0 2.0839996z" fill-rule="evenodd"/><path fill="#000000" d="m136.40945 248.38846l-5.018402 -2.8346558l0 2.0839996l-17.658768 0l0 1.501297l17.658768 0l0 2.0839996z" fill-rule="evenodd"/><path fill="#000000" d="m113.049866 248.4357l-5.0183945 -2.8346558l0 2.084015l-17.658768 0l0 1.5012817l17.658768 0l0 2.0839996z" fill-rule="evenodd"/><path fill="#000000" d="m89.44882 248.4357l-5.018402 -2.8346558l0 2.084015l-17.658768 0l0 1.5012817l17.658768 0l0 2.0839996z" fill-rule="evenodd"/><path fill="#000000" d="m66.77165 242.71916l5.018402 -2.8346405l0 2.0839996l17.658768 0l0 1.5012817l-17.658768 0l0 2.0839996z" fill-rule="evenodd"/><path fill="#000000" d="m90.25197 242.7664l5.018402 -2.8346405l0 2.0839996l17.65876 0l0 1.5012817l-17.65876 0l0 2.0839996z" fill-rule="evenodd"/><path fill="#000000" d="m113.732285 242.71916l5.018402 -2.8346405l0 2.0839996l17.658768 0l0 1.5012817l-17.658768 0l0 2.0839996z" fill-rule="evenodd"/><path fill="#000000" d="m137.2126 242.7664l5.018402 -2.8346405l0 2.0839996l17.658768 0l0 1.5012817l-17.658768 0l0 2.0839996z" fill-rule="evenodd"/><path fill="#000000" d="m386.7244 248.45145l-5.0183716 -2.8346558l0 2.084015l-17.658783 0l0 1.5012817l17.658783 0l0 2.0839996z" fill-rule="evenodd"/><path fill="#000000" d="m363.25986 248.4042l-5.018402 -2.8346558l0 2.084015l-17.658783 0l0 1.5012817l17.658783 0l0 2.0839996z" fill-rule="evenodd"/><path fill="#000000" d="m339.90027 248.45145l-5.018402 -2.8346558l0 2.084015l-17.658783 0l0 1.5012817l17.658783 0l0 2.0839996z" fill-rule="evenodd"/><path fill="#000000" d="m317.10236 242.78215l5.018402 -2.8346405l0 2.0839996l17.658783 0l0 1.5012817l-17.658783 0l0 2.0839996z" fill-rule="evenodd"/><path fill="#000000" d="m340.58267 242.73491l5.018402 -2.8346405l0 2.0839996l17.658783 0l0 1.5012817l-17.658783 0l0 2.0839996z" fill-rule="evenodd"/><path fill="#000000" d="m364.063 242.78215l5.018402 -2.8346405l0 2.0839996l17.658752 0l0 1.5012817l-17.658752 0l0 2.0839996z" fill-rule="evenodd"/><path fill="#000000" d="m566.5512 248.40683l-5.0184326 -2.8346558l0 2.084015l-17.658752 0l0 1.5012817l17.658752 0l0 2.0839996z" fill-rule="evenodd"/><path fill="#000000" d="m543.8898 242.73753l5.0183716 -2.8346405l0 2.0839996l17.658813 0l0 1.5012817l-17.658813 0l0 2.0839996z" fill-rule="evenodd"/><path fill="#000000" d="m589.98425 249.70079l-5.0682373 -4.346466l0 3.1954803l-17.608948 0l0 2.3019714l17.608948 0l0 3.195465z" fill-rule="evenodd"/><path fill="#000000" d="m567.31494 241.08661l5.0682373 -4.346451l0 3.195465l17.608948 0l0 2.3019714l-17.608948 0l0 3.1954803z" fill-rule="evenodd"/><path fill="#000000" d="m590.7402 240.09448l5.010498 -5.669281l0 4.1679993l17.666626 0l0 3.0025787l-17.666626 0l0 4.1679993z" fill-rule="evenodd"/><path fill="#000000" d="m613.4173 251.29659l-5.010498 -5.669281l0 4.1679993l-17.666626 0l0 3.0025635l17.666626 0l0 4.1680145z" fill-rule="evenodd"/><path fill="#000000" fill-opacity="0.0" d="m302.3622 491.77954l75.52756 -0.4409485" fill-rule="evenodd"/><path stroke="#000000" stroke-width="2.0" stroke-linejoin="round" stroke-linecap="butt" d="m309.21628 491.7395l68.67349 -0.40090942" fill-rule="evenodd"/><path fill="#000000" stroke="#000000" stroke-width="2.0" stroke-linecap="butt" d="m309.21625 491.7395l2.236023 -2.2622375l-6.166321 2.2851868l6.192566 2.2130737z" fill-rule="evenodd"/><path fill="#000000" fill-opacity="0.0" d="m37.795277 491.56168l113.38583 -0.12597656" fill-rule="evenodd"/><path stroke="#000000" stroke-width="2.0" stroke-linejoin="round" stroke-linecap="butt" stroke-dasharray="2.0,6.0" d="m44.64944 491.55405l106.53166 -0.11834717" fill-rule="evenodd"/><path fill="#000000" stroke="#000000" stroke-width="2.0" stroke-linecap="butt" d="m44.649445 491.55408l2.246666 -2.2516785l-6.1770325 2.2560425l6.1820297 2.242279z" fill-rule="evenodd"/><path fill="#000000" fill-opacity="0.0" d="m821.3228 472.7874l-65.19684 -38.141754" fill-rule="evenodd"/><path stroke="#000000" stroke-width="2.0" stroke-linejoin="round" stroke-linecap="butt" d="m821.3228 472.7874l-59.28076 -34.680664" fill-rule="evenodd"/><path fill="#000000" stroke="#000000" stroke-width="2.0" stroke-linecap="butt" d="m762.0421 438.10675l3.0770874 -0.805603l-6.4695435 -1.1790771l4.198059 5.0617676z" fill-rule="evenodd"/><path fill="#000000" fill-opacity="0.0" d="m85.03937 462.99213l37.79528 0l0 37.795288l-37.79528 0z" fill-rule="evenodd"/><path fill="#000000" d="m103.147194 479.71426q0.703125 -1.625 1.546875 -2.25q0.84375 -0.625 2.296875 -0.625q1.671875 0 2.828125 1.203125q1.15625 1.203125 1.15625 3.140625q0 1.90625 -1.125 3.140625q-1.125 1.234375 -2.5 1.234375q-1.03125 0 -1.921875 -0.765625q-0.578125 -0.5 -1.59375 -2.21875q-0.65625 1.296875 -1.453125 1.859375q-0.796875 0.5625 -1.921875 0.5625q-1.5 0 -2.53125 -1.0625q-1.03125 -1.078125 -1.03125 -2.78125q0 -1.71875 0.953125 -2.765625q0.953125 -1.046875 2.234375 -1.046875q0.90625 0 1.59375 0.46875q0.6875 0.453125 1.46875 1.90625zm1.0 2.125q0.78125 1.625 1.53125 2.1875q0.765625 0.546875 1.703125 0.546875q1.28125 0 2.140625 -0.921875q0.859375 -0.921875 0.859375 -2.46875q0 -1.53125 -0.90625 -2.53125q-0.90625 -1.0 -2.03125 -1.0q-0.703125 0 -1.25 0.359375q-0.53125 0.359375 -0.96875 1.171875q-0.25 0.46875 -1.078125 2.65625zm-1.3125 -1.3125q-0.5 -1.15625 -1.15625 -1.6875q-0.65625 -0.546875 -1.625 -0.546875q-1.09375 0 -1.84375 0.78125q-0.75 0.765625 -0.75 2.078125q0 1.375 0.734375 2.203125q0.734375 0.828125 1.671875 0.828125q0.984375 0 1.75 -0.875q0.484375 -0.59375 1.21875 -2.78125z" fill-rule="nonzero"/><path fill="#000000" fill-opacity="0.0" d="m321.25986 462.99213l37.795258 0l0 37.795288l-37.795258 0z" fill-rule="evenodd"/><path fill="#000000" d="m340.0594 476.83926l0 2.15625q1.203125 -2.15625 2.46875 -2.15625q0.5625 0 0.9375 0.359375q0.375 0.34375 0.375 0.796875q0 0.40625 -0.265625 0.6875q-0.265625 0.28125 -0.640625 0.28125q-0.375 0 -0.828125 -0.359375q-0.453125 -0.359375 -0.671875 -0.359375q-0.1875 0 -0.40625 0.21875q-0.46875 0.421875 -0.96875 1.40625l0 4.5625q0 0.796875 0.203125 1.203125q0.140625 0.28125 0.484375 0.46875q0.34375 0.1875 0.984375 0.1875l0 0.375l-4.890625 0l0 -0.375q0.734375 0 1.09375 -0.234375q0.25 -0.15625 0.359375 -0.53125q0.046875 -0.171875 0.046875 -1.0l0 -3.703125q0 -1.671875 -0.0625 -1.984375q-0.0625 -0.3125 -0.25 -0.453125q-0.1875 -0.15625 -0.453125 -0.15625q-0.328125 0 -0.734375 0.15625l-0.09375 -0.375l2.875 -1.171875l0.4375 0z" fill-rule="nonzero"/><path fill="#000000" fill-opacity="0.0" d="m774.80316 425.19684l37.795288 0l0 37.795288l-37.795288 0z" fill-rule="evenodd"/><path fill="#000000" d="m793.6027 439.044l0 2.15625q1.203125 -2.15625 2.46875 -2.15625q0.5625 0 0.9375 0.359375q0.375 0.34375 0.375 0.796875q0 0.40625 -0.265625 0.6875q-0.265625 0.28125 -0.640625 0.28125q-0.375 0 -0.828125 -0.359375q-0.453125 -0.359375 -0.671875 -0.359375q-0.1875 0 -0.40625 0.21875q-0.46875 0.421875 -0.96875 1.40625l0 4.5625q0 0.796875 0.203125 1.203125q0.140625 0.28125 0.484375 0.46875q0.34375 0.1875 0.984375 0.1875l0 0.375l-4.890625 0l0 -0.375q0.734375 0 1.09375 -0.234375q0.25 -0.15625 0.359375 -0.53125q0.046875 -0.171875 0.046875 -1.0l0 -3.703125q0 -1.671875 -0.0625 -1.984375q-0.0625 -0.3125 -0.25 -0.453125q-0.1875 -0.15625 -0.453125 -0.15625q-0.328125 0 -0.734375 0.15625l-0.09375 -0.375l2.875 -1.171875l0.4375 0z" fill-rule="nonzero"/><path fill="#000000" fill-opacity="0.0" d="m18.897638 0l56.692917 0l0 45.259842l-56.692917 0z" fill-rule="evenodd"/><path fill="#000000" d="m49.54424 33.651875l0 0.390625q-1.578125 -0.796875 -2.625 -1.859375q-1.5 -1.5 -2.3125 -3.546875q-0.8125 -2.0625 -0.8125 -4.265625q0 -3.234375 1.59375 -5.890625q1.59375 -2.65625 4.15625 -3.8125l0 0.4375q-1.28125 0.71875 -2.109375 1.953125q-0.8125 1.21875 -1.21875 3.109375q-0.40625 1.875 -0.40625 3.921875q0 2.234375 0.34375 4.0625q0.265625 1.4375 0.640625 2.296875q0.390625 0.875 1.046875 1.671875q0.65625 0.8125 1.703125 1.53125zm6.5555573 -5.546875q-1.46875 1.140625 -1.84375 1.3125q-0.5625 0.265625 -1.203125 0.265625q-0.984375 0 -1.625 -0.671875q-0.640625 -0.6875 -0.640625 -1.796875q0 -0.6875 0.3125 -1.203125q0.421875 -0.703125 1.46875 -1.328125q1.0625 -0.625 3.53125 -1.53125l0 -0.375q0 -1.421875 -0.453125 -1.953125q-0.453125 -0.53125 -1.328125 -0.53125q-0.65625 0 -1.03125 0.359375q-0.40625 0.34375 -0.40625 0.8125l0.03125 0.59375q0 0.484375 -0.25 0.75q-0.25 0.25 -0.640625 0.25q-0.390625 0 -0.640625 -0.265625q-0.234375 -0.265625 -0.234375 -0.734375q0 -0.90625 0.90625 -1.65625q0.921875 -0.75 2.578125 -0.75q1.28125 0 2.09375 0.4375q0.609375 0.3125 0.90625 1.0q0.1875 0.453125 0.1875 1.84375l0 3.234375q0 1.359375 0.046875 1.671875q0.046875 0.3125 0.171875 0.421875q0.125 0.09375 0.28125 0.09375q0.15625 0 0.28125 -0.078125q0.21875 -0.125 0.84375 -0.75l0 0.578125q-1.15625 1.5625 -2.21875 1.5625q-0.515625 0 -0.828125 -0.34375q-0.296875 -0.359375 -0.296875 -1.21875zm0 -0.671875l0 -3.640625q-1.578125 0.625 -2.03125 0.890625q-0.828125 0.453125 -1.1875 0.953125q-0.34375 0.5 -0.34375 1.09375q0 0.75 0.4375 1.25q0.453125 0.484375 1.03125 0.484375q0.796875 0 2.09375 -1.03125zm3.872696 -12.328125l0 -0.4375q1.578125 0.78125 2.625 1.84375q1.5000038 1.53125 2.3125038 3.578125q0.8125 2.03125 0.8125 4.25q0 3.234375 -1.59375 5.890625q-1.5937538 2.671875 -4.156254 3.8125l0 -0.390625q1.28125 -0.71875 2.109375 -1.9375q0.828125 -1.21875 1.21875 -3.109375q0.40625 -1.890625 0.40625 -3.953125q0 -2.21875 -0.34375 -4.046875q-0.265625 -1.4375 -0.65625 -2.296875q-0.390625 -0.859375 -1.03125 -1.65625q-0.640625 -0.8125 -1.703125 -1.546875z" fill-rule="nonzero"/><path fill="#000000" fill-opacity="0.0" d="m170.07874 0l56.692917 0l0 45.259842l-56.692917 0z" fill-rule="evenodd"/><path fill="#000000" d="m199.52773 33.651875l0 0.390625q-1.578125 -0.796875 -2.625 -1.859375q-1.5 -1.5 -2.3125 -3.546875q-0.8125 -2.0625 -0.8125 -4.265625q0 -3.234375 1.59375 -5.890625q1.59375 -2.65625 4.15625 -3.8125l0 0.4375q-1.28125 0.71875 -2.109375 1.953125q-0.8125 1.21875 -1.21875 3.109375q-0.40625 1.875 -0.40625 3.921875q0 2.234375 0.34375 4.0625q0.265625 1.4375 0.640625 2.296875q0.390625 0.875 1.046875 1.671875q0.65625 0.8125 1.703125 1.53125zm3.7586823 -12.0625q1.390625 -1.9375 2.984375 -1.9375q1.46875 0 2.5625 1.265625q1.09375 1.25 1.09375 3.421875q0 2.546875 -1.6875 4.09375q-1.4375 1.34375 -3.21875 1.34375q-0.84375 0 -1.703125 -0.296875q-0.859375 -0.3125 -1.75 -0.921875l0 -9.875q0 -1.625 -0.078125 -2.0q-0.078125 -0.375 -0.25 -0.5q-0.15625 -0.140625 -0.40625 -0.140625q-0.296875 0 -0.734375 0.15625l-0.140625 -0.359375l2.859375 -1.171875l0.46875 0l0 6.921875zm0 0.65625l0 5.71875q0.53125 0.515625 1.09375 0.78125q0.578125 0.265625 1.171875 0.265625q0.9375 0 1.75 -1.03125q0.828125 -1.046875 0.828125 -3.046875q0 -1.828125 -0.828125 -2.8125q-0.8125 -0.984375 -1.84375 -0.984375q-0.5625 0 -1.109375 0.28125q-0.421875 0.203125 -1.0625 0.828125zm7.8671875 -7.140625l0 -0.4375q1.578125 0.78125 2.625 1.84375q1.5 1.53125 2.3125 3.578125q0.8125 2.03125 0.8125 4.25q0 3.234375 -1.59375 5.890625q-1.59375 2.671875 -4.15625 3.8125l0 -0.390625q1.28125 -0.71875 2.109375 -1.9375q0.828125 -1.21875 1.21875 -3.109375q0.40625 -1.890625 0.40625 -3.953125q0 -2.21875 -0.34375 -4.046875q-0.265625 -1.4375 -0.65625 -2.296875q-0.390625 -0.859375 -1.03125 -1.65625q-0.640625 -0.8125 -1.703125 -1.546875z" fill-rule="nonzero"/><path fill="#000000" fill-opacity="0.0" d="m396.84122 0l56.6929 0l0 45.259842l-56.6929 0z" fill-rule="evenodd"/><path fill="#000000" d="m427.48782 33.651875l0 0.390625q-1.578125 -0.796875 -2.625 -1.859375q-1.5 -1.5 -2.3125 -3.546875q-0.8125 -2.0625 -0.8125 -4.265625q0 -3.234375 1.59375 -5.890625q1.59375 -2.65625 4.15625 -3.8125l0 0.4375q-1.28125 0.71875 -2.109375 1.953125q-0.8125 1.21875 -1.21875 3.109375q-0.40625 1.875 -0.40625 3.921875q0 2.234375 0.34375 4.0625q0.265625 1.4375 0.640625 2.296875q0.390625 0.875 1.046875 1.671875q0.65625 0.8125 1.703125 1.53125zm9.243042 -7.796875q-0.375 1.890625 -1.5 2.90625q-1.125 1.015625 -2.5 1.015625q-1.625 0 -2.828125 -1.359375q-1.203125 -1.375 -1.203125 -3.703125q0 -2.25 1.328125 -3.65625q1.34375 -1.40625 3.21875 -1.40625q1.40625 0 2.3125 0.75q0.90625 0.75 0.90625 1.546875q0 0.390625 -0.265625 0.640625q-0.25 0.25 -0.703125 0.25q-0.609375 0 -0.921875 -0.40625q-0.1875 -0.21875 -0.25 -0.828125q-0.046875 -0.609375 -0.40625 -0.9375q-0.375 -0.3125 -1.015625 -0.3125q-1.046875 0 -1.671875 0.765625q-0.84375 1.03125 -0.84375 2.703125q0 1.703125 0.828125 3.015625q0.84375 1.3125 2.265625 1.3125q1.03125 0 1.84375 -0.703125q0.5625 -0.484375 1.109375 -1.734375l0.296875 0.140625zm1.1852112 -10.75l0 -0.4375q1.578125 0.78125 2.625 1.84375q1.5 1.53125 2.3125 3.578125q0.8125 2.03125 0.8125 4.25q0 3.234375 -1.59375 5.890625q-1.59375 2.671875 -4.15625 3.8125l0 -0.390625q1.28125 -0.71875 2.109375 -1.9375q0.828125 -1.21875 1.21875 -3.109375q0.40625 -1.890625 0.40625 -3.953125q0 -2.21875 -0.34375 -4.046875q-0.265625 -1.4375 -0.65625 -2.296875q-0.390625 -0.859375 -1.03125 -1.65625q-0.640625 -0.8125 -1.703125 -1.546875z" fill-rule="nonzero"/><path fill="#000000" fill-opacity="0.0" d="m623.6221 0l56.69287 0l0 45.259842l-56.69287 0z" fill-rule="evenodd"/><path fill="#000000" d="m653.07104 33.651875l0 0.390625q-1.578125 -0.796875 -2.625 -1.859375q-1.5 -1.5 -2.3125 -3.546875q-0.8125 -2.0625 -0.8125 -4.265625q0 -3.234375 1.59375 -5.890625q1.59375 -2.65625 4.15625 -3.8125l0 0.4375q-1.28125 0.71875 -2.109375 1.953125q-0.8125 1.21875 -1.21875 3.109375q-0.40625 1.875 -0.40625 3.921875q0 2.234375 0.34375 4.0625q0.265625 1.4375 0.640625 2.296875q0.390625 0.875 1.046875 1.671875q0.65625 0.8125 1.703125 1.53125zm7.883667 -5.25q-0.703125 0.734375 -1.375 1.0625q-0.65625 0.3125 -1.421875 0.3125q-1.5625 0 -2.734375 -1.3125q-1.171875 -1.3125 -1.171875 -3.359375q0 -2.046875 1.296875 -3.75q1.296875 -1.703125 3.328125 -1.703125q1.25 0 2.078125 0.796875l0 -1.75q0 -1.640625 -0.078125 -2.015625q-0.078125 -0.375 -0.25 -0.5q-0.15625 -0.140625 -0.40625 -0.140625q-0.28125 0 -0.71875 0.15625l-0.140625 -0.359375l2.84375 -1.171875l0.46875 0l0 11.03125q0 1.671875 0.078125 2.046875q0.078125 0.375 0.25 0.515625q0.171875 0.140625 0.40625 0.140625q0.28125 0 0.75 -0.171875l0.109375 0.359375l-2.828125 1.1875l-0.484375 0l0 -1.375zm0 -0.71875l0 -4.921875q-0.0625 -0.703125 -0.375 -1.28125q-0.3125 -0.59375 -0.828125 -0.890625q-0.515625 -0.296875 -1.0 -0.296875q-0.921875 0 -1.640625 0.828125q-0.953125 1.078125 -0.953125 3.15625q0 2.109375 0.921875 3.234375q0.921875 1.109375 2.046875 1.109375q0.9375 0 1.828125 -0.9375zm3.7421875 -12.578125l0 -0.4375q1.578125 0.78125 2.625 1.84375q1.5 1.53125 2.3125 3.578125q0.8125 2.03125 0.8125 4.25q0 3.234375 -1.59375 5.890625q-1.59375 2.671875 -4.15625 3.8125l0 -0.390625q1.28125 -0.71875 2.109375 -1.9375q0.828125 -1.21875 1.21875 -3.109375q0.40625 -1.890625 0.40625 -3.953125q0 -2.21875 -0.34375 -4.046875q-0.265625 -1.4375 -0.65625 -2.296875q-0.390625 -0.859375 -1.03125 -1.65625q-0.640625 -0.8125 -1.703125 -1.546875z" fill-rule="nonzero"/><path fill="#000000" fill-opacity="0.0" d="m804.7244 492.56693l-36.346497 -43.527557" fill-rule="evenodd"/><path stroke="#000000" stroke-width="1.0" stroke-linejoin="round" stroke-linecap="butt" stroke-dasharray="1.0,3.0" d="m804.7244 492.56693l-34.14984 -40.896973" fill-rule="evenodd"/><path fill="#000000" stroke="#000000" stroke-width="1.0" stroke-linecap="butt" d="m770.5745 451.66995l1.5840454 0.14239502l-2.843628 -1.6508484l1.1171875 3.0924683z" fill-rule="evenodd"/><path fill="#000000" fill-opacity="0.0" d="m793.98425 500.09448l-18.677185 -32.850403" fill-rule="evenodd"/><path stroke="#000000" stroke-width="1.0" stroke-linejoin="round" stroke-linecap="butt" stroke-dasharray="1.0,3.0" d="m793.98425 500.09448l-16.983337 -29.871124" fill-rule="evenodd"/><path fill="#000000" stroke="#000000" stroke-width="1.0" stroke-linecap="butt" d="m777.0009 470.22333l1.5334473 0.42178345l-2.5046997 -2.1301575l0.5494995 3.2418213z" fill-rule="evenodd"/><path fill="#000000" fill-opacity="0.0" d="m814.04724 483.3071l-28.787415 -24.503937" fill-rule="evenodd"/><path stroke="#000000" stroke-width="1.0" stroke-linejoin="round" stroke-linecap="butt" stroke-dasharray="1.0,3.0" d="m814.04724 483.3071l-26.177734 -22.282562" fill-rule="evenodd"/><path fill="#000000" stroke="#000000" stroke-width="1.0" stroke-linecap="butt" d="m787.8695 461.0245l1.5853271 -0.12741089l-3.081787 -1.1463623l1.6239014 2.8590698z" fill-rule="evenodd"/></g></svg>